{"title":"Assassination Games 2011 DVDrip English Klam","uid":6662115,"size":1537104452,"categoryP":"video","categoryS":"movies","magnet":"?xt=urn:btih:de16a0c9ee1cfb0e49545a59a0854b4ec91faad2&amp;dn=Assassination+Games+2011+DVDrip+English+Klam&amp;tr=udp%3A%2F%2Ftracker.openbittorrent.com%3A80&amp;tr=udp%3A%2F%2Fopen.demonii.com%3A1337&amp;tr=udp%3A%2F%2Ftracker.coppersurfer.tk%3A6969&amp;tr=udp%3A%2F%2Fexodus.desync.com%3A6969","seeders":0,"leechers":0,"uploader":"Klambake","files":-1,"time":1315556970,"description":"With: Jean-Claude Van Damme, Scott Adkins and Kevin Chapham\n\nTwee huurmoordenaars, met elk hun eigen specialiteit, worden ingehuurd om een drugskartel omver te werpen. Brazil (Jean Claude Van Damme) en Flint (Scott Adkins) zullen ondanks hun rivaliteit moeten samenwerken om dit voor elkaar te kunnen krijgen\n\nRival assassins -- each of whom are masters of their respective weapons -- form an uneasy alliance in their mission to take down a DEA-backed drug cartel. \n\n------------------ Dutch Friends ------------------\nYou can find my Friends at: http://www.Film-Test.nl \n------ They got my dutchs subs ---- and more ------\n\nGeneral:\n\nComplete name                    : Assassination Games\\Assassination Games.avi\nFormat                           : AVI\nFormat/Info                      : Audio Video Interleave\nFile size                        : 1.43 GiB\nDuration                         : 1h 39mn\nOverall bit rate                 : 2 052 Kbps\n\nVideo:\n\nFormat                           : MPEG-4 Visual\nFormat profile                   : Simple@L3\nFormat settings, BVOP            : No\nFormat settings, QPel            : No\nFormat settings, GMC             : No warppoints\nFormat settings, Matrix          : Default (H.263)\nCodec ID                         : XVID\nCodec ID/Hint                    : XviD\nDuration                         : 1h 39mn\nBit rate                         : 1 593 Kbps\nWidth                            : 652 pixels\nHeight                           : 352 pixels\nDisplay aspect ratio             : 1.852\nFrame rate                       : 23.976 fps\nColor space                      : YUV\nChroma subsampling               : 4:2:0\nBit depth                        : 8 bits\nScan type                        : Progressive\nBits/(Pixel*Frame)               : 0.290\nStream size                      : 1.11 GiB (78%)\nWriting library                  : XviD 1.1.2 (UTC 2006-11-01)\n\nAudio:\n\nFormat                           : AC-3\nFormat/Info                      : Audio Coding 3\nMode extension                   : CM (complete main)\nCodec ID                         : 2000\nDuration                         : 1h 39mn\nBit rate mode                    : Constant\nBit rate                         : 448 Kbps\nChannel(s)                       : 6 channels\nChannel positions                : Front: L C R, Side: L R, LFE\nSampling rate                    : 48.0 KHz\nBit depth                        : 16 bits\nStream size                      : 320 MiB (22%)\nAlignment                        : Aligned on interleaves\nInterleave, duration             : 32 ms (0.77 video frame)\nInterleave, preload duration     : 32 ms\n\n","torrent":{"xt":"urn:btih:de16a0c9ee1cfb0e49545a59a0854b4ec91faad2","amp;dn":"Assassination+Games+2011+DVDrip+English+Klam","amp;tr":["udp%3A%2F%2Ftracker.openbittorrent.com%3A80","udp%3A%2F%2Fopen.demonii.com%3A1337","udp%3A%2F%2Ftracker.coppersurfer.tk%3A6969","udp%3A%2F%2Fexodus.desync.com%3A6969"],"infoHash":"de16a0c9ee1cfb0e49545a59a0854b4ec91faad2","infoHashBuffer":{"type":"Buffer","data":[222,22,160,201,238,28,251,14,73,84,90,89,160,133,75,78,201,31,170,210]},"announce":[],"urlList":[]}}